<?xml version="1.0" encoding="utf-8"?>
<!-- Generator: Adobe Illustrator 24.0.0, SVG Export Plug-In . SVG Version: 6.00 Build 0)  -->
<svg version="1.1" id="Layer_1" xmlns="http://www.w3.org/2000/svg" xmlns:xlink="http://www.w3.org/1999/xlink" x="0px" y="0px"
	 viewBox="0 0 4325.6 449.7" style="enable-background:new 0 0 4325.6 449.7;" xml:space="preserve">
<style type="text/css">
	.st0{fill-rule:evenodd;clip-rule:evenodd;fill:#FFFFFF;}
</style>
<g id="BACKGROUND">
</g>
<g id="Layer_1_1_">
	<g>
		<path class="st0" d="M224.8,449.7c124.2,0,224.8-100.7,224.8-224.8S348.9,0,224.8,0C100.6,0,0,100.7,0,224.8
			S100.6,449.7,224.8,449.7z M131,195.8h51.6v-42.5c0-42.5,25.1-78.1,70.4-75.3l47.4,2.1v47.4h-26.5c-14.6,0-30,9.1-30,25.1v43.2
			h54.4l-9.1,57.2h-45.3v141.5h-61.3V253H131V195.8z"/>
		<path class="st0" d="M872.6,0C748.4,0,647.8,100.7,647.8,224.8s100.7,224.8,224.8,224.8s224.8-100.7,224.8-224.8S996.8,0,872.6,0z
			 M1016.2,290.6c0,42.5-35,77.4-77.4,77.4H806.5c-42.5,0-77.4-35-77.4-77.4V159c0-42.5,35-77.4,77.4-77.4h132.3
			c42.5,0,77.4,35,77.4,77.4V290.6z"/>
		<path class="st0" d="M873,173.4h-0.7c-28.1,0-51.4,23.3-51.4,51.4c0,28.8,23.3,52.1,51.4,52.1h0.7c28.1,0,51.4-23.3,51.4-52.1
			C924.4,196.7,901.1,173.4,873,173.4z"/>
		<path class="st0" d="M938.1,106.3H807.2c-29.5,0-53.5,24-53.5,53.5V290c0,29.5,24,53.5,53.5,53.5h130.9c29.5,0,53.5-24,53.5-53.5
			V159.7C991.6,130.3,967.6,106.3,938.1,106.3z M873,303h-0.7c-42.5,0-77.4-35-77.4-78.1c0-42.5,35-78.1,77.4-78.1h0.7
			c42.5,0,78.1,35.6,78.1,78.1C951.1,268,915.5,303,873,303z M949.7,164.5c-9.6,0-16.4-7.5-16.4-16.4s6.9-16.4,16.4-16.4
			c8.9,0,16.4,7.5,16.4,16.4C966.2,157,958.7,164.5,949.7,164.5z"/>
		<path class="st0" d="M4100.8,0C3976.6,0,3876,100.7,3876,224.8c0,124.2,100.7,224.8,224.8,224.8c124.2,0,224.8-100.7,224.8-224.8
			C4325.7,100.7,4225,0,4100.8,0z M4100.8,367.1c-21.7,0-41.9-4.3-59.9-13l-75.8,13l10.1-75.1l-0.7-1.4
			c-10.1-19.5-15.9-41.9-15.9-65.7c0-78.7,63.5-142.2,142.2-142.2c78.7,0,142.2,63.5,142.2,142.2S4179.5,367.1,4100.8,367.1z"/>
		<path class="st0" d="M4100.8,105.7c-65.7,0-119.1,53.4-119.1,119.1c0,23.8,7.2,45.5,18.8,64.3l-1.4,10.8l-2.9,21.7l-2.2,16.6
			l17.3-2.9l20.2-3.6l12.3-2.2c17.3,9.4,36.1,14.4,57,14.4c65.7,0,119.1-53.4,119.1-119.1S4166.5,105.7,4100.8,105.7z M4165.8,277.6
			l-6.5,7.9c-9.4,11.6-17.3,12.3-29.6,9.4c-46.9-12.3-81.6-45.5-96.8-92.4c-5.1-18.1,2.2-33.2,17.3-42.6c7.9-5.1,13-1.4,15.9,6.5
			l7.2,18.8c0,0,5.1,10.1-7.9,20.2c-2.2,1.4-2.2,1.4-1.4,5.1c2.9,8.7,14.4,34.7,51.3,54.9c3.6,2.2,4.3,2.2,7.9-0.7
			c2.9-2.9,6.5-6.5,9.4-9.4c6.5-5.8,10.1-7.9,15.9-3.6c4.3,2.9,8.7,6.5,13,9.4C4165.8,264.6,4173,268.9,4165.8,277.6z"/>
		<path class="st0" d="M2168.9,449.7c124.2,0,224.8-100.7,224.8-224.8S2293,0.1,2168.9,0.1S1944,100.6,1944,224.8
			S2044.7,449.7,2168.9,449.7z M2139.1,193.2c0.6,0,1.3,0,1.9,0c4.4,0,8.8,0.6,12.6,1.3v50.3c-3.8-1.3-8.2-1.9-12.6-1.9
			c-23.2,0-42.1,18.8-42.1,42.1c0,8.8,2.5,17.6,7.5,24.5c8.2,10.7,20.7,17.6,34.6,17.6c23.9,0,42.7-18.8,42.7-42.1v-81V87h35.8h13.8
			c-0.6,17,6.3,34.6,18.2,47.7c10.1,11.3,22,18.8,35.8,20.7c4.4,1.3,9.4,1.3,14.4,0v49.7c-25.1,1.9-49.6-6.3-68.5-23.2v103
			c0,50.3-41.5,91.1-92.3,91.1c-26.4,0-50.3-11.3-67.2-28.9c-15.1-16.3-24.5-38.3-24.5-62.2C2049.3,235.2,2088.9,194.4,2139.1,193.2
			z"/>
		<path class="st0" d="M2805.1,0c-124.2,0-224.8,100.7-224.8,224.8c0,124.2,100.7,224.8,224.8,224.8
			c124.2,0,224.8-100.7,224.8-224.8S2929.2,0,2805.1,0z M2940.6,279.4c-4.3,32.3-20.5,37.2-52.2,39.8c-27.5,2.7-58.7,3.2-82.9,3.2
			c-24.2,0-56-0.5-82.9-3.2c-31.8-2.7-48.5-7.5-52.8-39.8c-1.6-14-2.7-34.5-2.7-54.9c0-20.5,1.1-40.4,2.7-54.9
			c4.3-31.8,21-37.2,52.8-39.8c26.9-2.2,58.7-3.2,82.9-3.2c24.2,0,55.5,1.1,82.9,3.2c31.8,2.7,47.9,8.1,52.2,39.8
			c2.2,14.5,3.2,34.5,3.2,54.9C2943.8,245,2942.7,265.4,2940.6,279.4z"/>
		<polygon class="st0" points="2777.4,266.5 2849.6,224.5 2777.4,183.1 		"/>
		<path class="st0" d="M1520.5,0c-124.2,0-224.8,100.7-224.8,224.8s100.7,224.8,224.8,224.8c124.2,0,224.8-100.7,224.8-224.8
			S1644.7,0,1520.5,0z M1636.8,169.4c9.6,133.7-134.4,214.9-251.1,148.5c0,0,57.6,3,82-25.1c0,0-35.5,3-53.2-39.9
			c0,0,13.3,5.2,26.6-1.5c0,0-41.4-6.6-45.1-56.1c0,0,13.3,10.3,28.1,6.6c0,0-45.8-27.3-19.9-76.8c0,0,48.7,62,118.9,59.8
			c-11.1-58.3,59.1-93.1,100.4-51c0,0,18.5-5.2,34.7-15.5c0,0-5.9,19.9-25.8,32.5c0,0,22.2-3,31.8-8.9
			C1664.1,142,1654.5,162,1636.8,169.4z"/>
		<path class="st0" d="M3452.9,0c-124.2,0-224.8,100.7-224.8,224.8c0,124.2,100.7,224.8,224.8,224.8
			c124.1,0,224.8-100.7,224.8-224.8C3677.8,100.7,3577.1,0,3452.9,0z M3570.6,175.4c-7,47.9-15,95.8-22.9,143.7
			c-3,22.9-15,34.9-39.9,20.9l-77.8-54.9c-11-9-8-16,1-24.9l71.8-67.8c19-19,10-25.9-12-11l-98.8,66.8c-14,10-28.9,10-44.9,5
			l-33.9-12c-21.9-8-5-17,6-21.9c61.9-25.9,136.7-62.8,201.5-87.8C3580.6,109.6,3579.6,115.6,3570.6,175.4z"/>
	</g>
</g>
</svg>
